{
  "asset": {
    "extras": {
      "author": "Scott VanArsdale (https://sketchfab.com/vanart)",
      "license": "CC-BY-4.0 (http://creativecommons.org/licenses/by/4.0/)",
      "source": "https://sketchfab.com/3d-models/golf-ball-b0b50a16aa5d431e8ed799c1a413025c",
      "title": "Golf Ball"
    },
    "generator": "gltfeditor.com",
    "version": "2.0"
  },
  "buffers": [
    {
      "uri": "data:application/octet-stream;base64,",
      "byteLength": 23616
    }
  ],
  "bufferViews": [
    {
      "buffer": 0,
      "byteOffset": 8736,
      "byteLength": 8928,
      "target": 34962,
      "byteStride": 12
    },
    {
      "buffer": 0,
      "byteOffset": 17664,
      "byteLength": 5952,
      "target": 34962,
      "byteStride": 16
    },
    {
      "buffer": 0,
      "byteOffset": 5760,
      "byteLength": 2976,
      "target": 34962,
      "byteStride": 8
    },
    {
      "buffer": 0,
      "byteOffset": 0,
      "byteLength": 5760,
      "target": 34963
    }
  ],
  "accessors": [
    {
      "bufferView": 0,
      "byteOffset": 4464,
      "componentType": 5126,
      "normalized": false,
      "count": 372,
      "max": [
        1,
        1,
        1
      ],
      "min": [
        -1,
        -1,
        -1
      ],
      "type": "VEC3"
    },
    {
      "bufferView": 0,
      "byteOffset": 0,
      "componentType": 5126,
      "normalized": false,
      "count": 372,
      "max": [
        1,
        1,
        1
      ],
      "min": [
        -1,
        -1,
        -1
      ],
      "type": "VEC3"
    },
    {
      "bufferView": 1,
      "byteOffset": 0,
      "componentType": 5126,
      "normalized": false,
      "count": 372,
      "max": [
        0.9994458556175232,
        0.9451318979263306,
        0.9450696706771851,
        1
      ],
      "min": [
        -0.8084642887115479,
        -0.8883313536643982,
        -0.7741007208824158,
        1
      ],
      "type": "VEC4"
    },
    {
      "bufferView": 2,
      "byteOffset": 0,
      "componentType": 5126,
      "normalized": false,
      "count": 372,
      "max": [
        0.9951170086860657,
        0.9537000060081482
      ],
      "min": [
        0.004883000161498785,
        0.004883000161498785
      ],
      "type": "VEC2"
    },
    {
      "bufferView": 3,
      "byteOffset": 0,
      "componentType": 5125,
      "normalized": false,
      "count": 1440,
      "max": [
        371
      ],
      "min": [
        0
      ],
      "type": "SCALAR"
    }
  ],
  "scene": 0,
  "scenes": [
    {
      "nodes": [
        3
      ],
      "name": "Sketchfab_Scene"
    }
  ],
  "nodes": [
    {
      "name": "defaultMaterial",
      "matrix": [
        0.8660253882408142,
        0,
        -0.5,
        0,
        0,
        1,
        0,
        0,
        0.5,
        0,
        0.8660253882408142,
        0,
        0,
        0,
        0,
        1
      ],
      "mesh": 0
    },
    {
      "name": "g",
      "children": [
        0
      ]
    },
    {
      "name": "Collada visual scene group",
      "children": [
        1
      ],
      "matrix": [
        1,
        0,
        0,
        0,
        0,
        3.422854177870249e-8,
        0.9999999403953552,
        0,
        0,
        -0.9999999403953552,
        3.422854177870249e-8,
        0,
        0,
        0,
        0,
        1
      ]
    },
    {
      "name": "Sketchfab_model",
      "children": [
        2
      ],
      "matrix": [
        1,
        0,
        0,
        0,
        0,
        3.422854177870249e-8,
        -0.9999999403953552,
        0,
        0,
        0.9999999403953552,
        3.422854177870249e-8,
        0,
        0,
        0,
        0,
        1
      ]
    }
  ],
  "meshes": [
    {
      "primitives": [
        {
          "material": 0,
          "mode": 4,
          "attributes": {
            "NORMAL": 0,
            "POSITION": 1,
            "TANGENT": 2,
            "TEXCOORD_0": 3
          },
          "indices": 4
        }
      ]
    }
  ],
  "materials": [
    {
      "pbrMetallicRoughness": {
        "baseColorFactor": [
          1,
          1,
          1,
          1
        ],
        "metallicFactor": 1,
        "roughnessFactor": 1,
        "baseColorTexture": {
          "index": 0,
          "texCoord": 0
        },
        "metallicRoughnessTexture": {
          "index": 1,
          "texCoord": 0
        }
      },
      "emissiveFactor": [
        0,
        0,
        0
      ],
      "alphaMode": "OPAQUE",
      "doubleSided": true,
      "normalTexture": {
        "index": 2,
        "texCoord": 0,
        "scale": 1
      },
      "occlusionTexture": {
        "index": 1,
        "texCoord": 0,
        "strength": 1
      }
    }
  ],
  "textures": [
    {
      "sampler": 0,
      "source": 0
    },
    {
      "sampler": 1,
      "source": 1
    },
    {
      "sampler": 2,
      "source": 2
    }
  ],
  "samplers": [
    {
      "magFilter": 9729,
      "minFilter": 9987,
      "wrapS": 10497,
      "wrapT": 10497
    },
    {
      "magFilter": 9729,
      "minFilter": 9987,
      "wrapS": 10497,
      "wrapT": 10497
    },
    {
      "magFilter": 9729,
      "minFilter": 9987,
      "wrapS": 10497,
      "wrapT": 10497
    }
  ],
  "images": [
    {
      "uri": "data:image/png;base64,",
      "mimeType": "image/png"
    },
    {
      "uri": "data:image/png;base64,",
      "mimeType": "image/png"
    },
    {
      "uri": "data:image/png;base64,",
      "mimeType": "image/png"
    }
  ]
}