<svg xmlns="http://www.w3.org/2000/svg" xmlns:xlink="http://www.w3.org/1999/xlink" width="150.608" height="150.559" viewBox="0 0 150.608 150.559">
  <defs>
    <clipPath id="clip-path">
      <rect id="Rectangle_14" data-name="Rectangle 14" width="150.608" height="150.559" fill="none"/>
    </clipPath>
  </defs>
  <g id="Group_12" data-name="Group 12" clip-path="url(#clip-path)">
    <g id="Group_11" data-name="Group 11">
      <g id="Group_10" data-name="Group 10" clip-path="url(#clip-path)">
        <g id="Group_9" data-name="Group 9" opacity="0.71">
          <g id="Group_8" data-name="Group 8">
            <g id="Group_7" data-name="Group 7" clip-path="url(#clip-path)">
              <path id="Path_1" data-name="Path 1" d="M0,81.382V69.043A89.967,89.967,0,0,1,1.654,58.777Q13.23,13.957,57.922,1.863A82.15,82.15,0,0,1,69.335,0H81.088c2.8.4,5.632.672,8.409,1.208a75.411,75.411,0,0,1,58.757,92.638C138.515,132.081,100.97,156.6,62,149.264,31.889,143.595,12.292,125.312,2.823,96.2A76.91,76.91,0,0,1,0,81.382M75.241,137.69A62.478,62.478,0,1,0,12.734,75.177,62.585,62.585,0,0,0,75.241,137.69" fill="#fff"/>
              <path id="Path_2" data-name="Path 2" d="M69.18,82.606q0-13.789,0-27.577c0-2.7.077-5.4,2.9-6.912,2.87-1.537,5.051.027,7.253,1.632Q98.479,63.7,117.65,77.62c4.491,3.27,4.506,6.862.052,10.1q-19.475,14.159-38.966,28.3a8.192,8.192,0,0,1-3.433,1.721,4.967,4.967,0,0,1-5.808-3.889,21.181,21.181,0,0,1-.3-3.861c-.025-9.127-.013-18.255-.013-27.382" transform="translate(-10.664 -7.321)" fill="#fff"/>
            </g>
          </g>
        </g>
      </g>
    </g>
  </g>
</svg>
