<svg id="ui-decoration-classic-icongraphic-70-percent-width" xmlns="http://www.w3.org/2000/svg" xmlns:xlink="http://www.w3.org/1999/xlink" width="1209.6" height="626" viewBox="0 0 1209.6 626">
  <defs>
    <clipPath id="clip-path">
      <rect id="mask" width="1209.6" height="626" transform="translate(0 1493)" fill="#6fe58f"/>
    </clipPath>
  </defs>
  <g id="ui-decoration-classic-icongraphic-70-percent-width-2" data-name="ui-decoration-classic-icongraphic-70-percent-width" transform="translate(0 -1493)" clip-path="url(#clip-path)">
    <path id="classic-icongraphic" d="M744.592,315.181C297.468,175.4,36.83,371.961,0,402.467l94.949,41.454C336.119,254.4,674.108,307.213,744.592,315.181m210.016,58.04V98.2c22.419-22.331,55.807,4.988,93.7.925,30.181-3.236,57.823-20.983,66.333-34.352-6.719,1.741-45.832.856-97.045-37.352S926.906,2.09,926.906,2.09V366.02c-474.806-118.333-750.3,71.743-785.585,98.166l156.836,68.507C794.142,308.275,1305.4,524.8,1384.211,555.368c-156.934-89.578-300.371-147.2-429.6-182.147" transform="translate(-174.999 1493.262)" fill="#f5f5f5"/>
  </g>
</svg>
