<svg id="logo-rsmclassic-rev" xmlns="http://www.w3.org/2000/svg" xmlns:xlink="http://www.w3.org/1999/xlink" width="154.068" height="66.25" viewBox="0 0 154.068 66.25">
  <defs>
    <clipPath id="clip-path">
      <rect id="Rectangle_307" data-name="Rectangle 307" width="154.068" height="66.25" fill="none"/>
    </clipPath>
  </defs>
  <rect id="Rectangle_304" data-name="Rectangle 304" width="96.909" height="16.177" transform="translate(57.159 50.073)" fill="#fff"/>
  <rect id="Rectangle_305" data-name="Rectangle 305" width="12.325" height="16.177" transform="translate(0.154 50.073)" fill="#fff"/>
  <rect id="Rectangle_306" data-name="Rectangle 306" width="30.814" height="16.177" transform="translate(19.412 50.073)" fill="#fff"/>
  <g id="Group_197" data-name="Group 197" transform="translate(0 0)">
    <g id="Group_196" data-name="Group 196" clip-path="url(#clip-path)">
      <path id="Path_159" data-name="Path 159" d="M20.408,8.948A8.181,8.181,0,0,0,17.59,2.286C15.694.778,13.488.416,10.222.416H.285v26.49H5.672V5.186h4.744a5.862,5.862,0,0,1,2.959.558,3.405,3.405,0,0,1,1.506,3.2c0,2.761-1.7,3.738-3.935,3.738H7.357v4.795H9.5L15.1,26.906h6.224L15.1,16.59c3.629-1.061,5.3-4.072,5.3-7.642M36.738,11.9c-3.823-1.31-8.124-1.478-8.124-4.377,0-1.866,1.7-2.731,4.132-2.731a28.528,28.528,0,0,1,8.066,1.17V1.17A27.658,27.658,0,0,0,32.607,0c-5.249,0-9.686,2.091-9.686,7.418,0,4.208,2.091,6.328,6.224,7.748,3.684,1.257,7.842,1.508,7.842,4.351,0,2.121-2.065,3.012-5.05,3.012A27.581,27.581,0,0,1,23.508,21.3v4.822A28.682,28.682,0,0,0,32.216,27.3c6.585,0,10.44-2.872,10.44-8.2,0-4.212-2.763-6.106-5.918-7.195M66.433.416l-9.46,26.49H62.11l6-16.843h.083V26.906h5.276V.416Zm-13.787,0H45.5v26.49h5.22V10.064h.085l5.339,14.291L58.806,16.9Z" transform="translate(-0.13 0)" fill="#fff"/>
      <path id="Path_160" data-name="Path 160" d="M0,63.215c0,3.329,1.034,6.042,4.978,6.042a13.414,13.414,0,0,0,3.8-.586V66.824a10.428,10.428,0,0,1-3.692.614c-2.433,0-3.021-1.874-3.021-4.223,0-2.152.588-4.027,3.021-4.027a11.733,11.733,0,0,1,3.692.587V57.929a10.888,10.888,0,0,0-3.8-.588C1.007,57.341,0,60,0,63.215m14.489-5.706H12.5V69.088h7.44V67.271H14.489ZM58.932,69.088h1.986V57.508H58.932ZM26.571,57.454,22.432,69.088h2.126l.978-2.851h3.973l.979,2.851H32.64L28.585,57.454Zm-.391,6.991,1.342-4.278,1.371,4.278Zm25.313-2.152C50.178,61.9,49,61.536,49,60.531c0-.811.532-1.344,1.959-1.344a14.648,14.648,0,0,1,3.776.587v-1.9a13.719,13.719,0,0,0-3.776-.532c-2.183,0-4.028.924-4.028,3.19,0,2.432,1.958,2.993,3.748,3.551,1.314.392,2.49.757,2.49,1.817,0,.981-.9,1.539-2.546,1.539a12.793,12.793,0,0,1-3.5-.614V68.7a10.768,10.768,0,0,0,3.468.56c2.769,0,4.643-1.091,4.643-3.469s-1.931-2.963-3.748-3.495m-11.608,0c-1.315-.392-2.49-.757-2.49-1.762,0-.811.532-1.344,1.959-1.344a14.635,14.635,0,0,1,3.776.587v-1.9a13.707,13.707,0,0,0-3.776-.532c-2.182,0-4.027.924-4.027,3.19,0,2.432,1.957,2.993,3.748,3.551,1.314.392,2.489.757,2.489,1.817,0,.981-.9,1.539-2.546,1.539a12.8,12.8,0,0,1-3.5-.614V68.7a10.763,10.763,0,0,0,3.468.56c2.769,0,4.643-1.091,4.643-3.469s-1.93-2.963-3.748-3.495m29.76-3.105a11.726,11.726,0,0,1,3.691.587V57.929a10.888,10.888,0,0,0-3.8-.588c-3.971,0-4.978,2.659-4.978,5.874,0,3.329,1.035,6.042,4.978,6.042a13.4,13.4,0,0,0,3.8-.586V66.824a10.423,10.423,0,0,1-3.691.614c-2.433,0-3.021-1.874-3.021-4.223,0-2.152.588-4.027,3.021-4.027" transform="translate(0 -26.175)" fill="#fff"/>
      <path id="Path_161" data-name="Path 161" d="M183.893,39.913c-24.7-7.723-39.1,3.137-41.139,4.823L148,47.026c13.325-10.471,32-7.553,35.893-7.113m11.6,3.207v-15.2c1.239-1.234,3.083.276,5.177.051a5.509,5.509,0,0,0,3.665-1.9c-.371.1-2.532.047-5.362-2.064s-5.011-1.4-5.011-1.4V42.721c-26.233-6.538-41.455,3.964-43.4,5.424l8.665,3.785c27.4-12.4,55.651-.436,60.006,1.253A101.4,101.4,0,0,0,195.5,43.119" transform="translate(-65.165 -10.27)" fill="#fff"/>
    </g>
  </g>
</svg>
