<svg id="Group_209" data-name="Group 209" xmlns="http://www.w3.org/2000/svg" width="150.413" height="64.678" viewBox="0 0 150.413 64.678">
  <g id="Group_208" data-name="Group 208" transform="translate(0.15 48.885)">
    <rect id="Rectangle_323" data-name="Rectangle 323" width="94.61" height="15.793" transform="translate(55.652)" fill="#009cde"/>
    <rect id="Rectangle_324" data-name="Rectangle 324" width="12.033" height="15.793" fill="#888b8d"/>
    <rect id="Rectangle_325" data-name="Rectangle 325" width="30.083" height="15.793" transform="translate(18.801)" fill="#329626"/>
  </g>
  <path id="Path_168" data-name="Path 168" d="M49.694,38.5A7.987,7.987,0,0,0,46.943,32c-1.851-1.472-4-1.825-7.193-1.825h-9.7V56.033h5.26V34.827h4.632a5.727,5.727,0,0,1,2.889.544A3.325,3.325,0,0,1,44.3,38.5c0,2.695-1.661,3.649-3.841,3.649h-3.5v4.681h2.089l5.474,9.2h6.077L44.517,45.961C48.059,44.926,49.694,41.986,49.694,38.5Zm15.942,2.886C61.9,40.107,57.7,39.944,57.7,37.113c0-1.822,1.664-2.666,4.034-2.666a27.868,27.868,0,0,1,7.875,1.142V30.907a27,27,0,0,0-8.01-1.143c-5.125,0-9.457,2.041-9.457,7.242,0,4.108,2.041,6.179,6.077,7.565,3.6,1.227,7.656,1.472,7.656,4.248,0,2.071-2.016,2.941-4.931,2.941a26.928,26.928,0,0,1-8.229-1.2v4.708a28.02,28.02,0,0,0,8.5,1.146c6.429,0,10.192-2.8,10.192-8C71.413,44.3,68.716,42.45,65.636,41.387ZM94.627,30.171,85.391,56.033h5.015L96.263,39.59h.08V56.033h5.151V30.171Zm-13.46,0H74.19V56.033h5.1V39.59h.083l5.212,13.952,2.6-7.276Z" transform="translate(-29.897 -29.764)" fill="#63666a"/>
  <path id="Path_169" data-name="Path 169" d="M29.764,92.839c0,3.25,1.01,5.9,4.86,5.9a13.1,13.1,0,0,0,3.714-.573v-1.8a10.182,10.182,0,0,1-3.605.6c-2.375,0-2.949-1.83-2.949-4.122,0-2.1.574-3.932,2.949-3.932a11.473,11.473,0,0,1,3.605.573v-1.8a10.633,10.633,0,0,0-3.714-.573C30.747,87.105,29.764,89.7,29.764,92.839Zm14.144-5.571H41.969v11.3h7.264V96.8H43.908Zm43.39,11.3h1.939v-11.3H87.3ZM55.7,87.214,51.663,98.573h2.076l.955-2.784h3.878l.956,2.784h2.1L57.67,87.214Zm-.382,6.826,1.31-4.177,1.339,4.177Zm24.713-2.1C78.751,91.556,77.6,91.2,77.6,90.22c0-.793.519-1.312,1.912-1.312a14.3,14.3,0,0,1,3.686.573V87.623a13.394,13.394,0,0,0-3.686-.518c-2.131,0-3.932.9-3.932,3.115,0,2.374,1.912,2.921,3.659,3.466,1.283.383,2.431.739,2.431,1.774,0,.957-.875,1.5-2.486,1.5a12.489,12.489,0,0,1-3.413-.6v1.828a10.512,10.512,0,0,0,3.385.547c2.7,0,4.533-1.065,4.533-3.387S81.809,92.458,80.035,91.939Zm-11.333,0c-1.284-.383-2.431-.739-2.431-1.719,0-.793.519-1.312,1.912-1.312a14.288,14.288,0,0,1,3.686.573V87.623a13.385,13.385,0,0,0-3.686-.518c-2.13,0-3.932.9-3.932,3.115,0,2.374,1.911,2.921,3.659,3.466,1.283.383,2.43.739,2.43,1.774,0,.957-.874,1.5-2.485,1.5a12.5,12.5,0,0,1-3.413-.6v1.828a10.508,10.508,0,0,0,3.386.547c2.7,0,4.533-1.065,4.533-3.387S70.477,92.458,68.7,91.939Zm29.054-3.031a11.465,11.465,0,0,1,3.6.573v-1.8a10.633,10.633,0,0,0-3.714-.573c-3.877,0-4.859,2.6-4.859,5.734,0,3.25,1.01,5.9,4.859,5.9a13.084,13.084,0,0,0,3.714-.573v-1.8a10.175,10.175,0,0,1-3.6.6c-2.376,0-2.949-1.83-2.949-4.122C94.808,90.738,95.381,88.908,97.757,88.908Z" transform="translate(-29.764 -56.679)" fill="#63666a"/>
  <path id="Path_170" data-name="Path 170" d="M212.682,69.264c-24.118-7.54-38.177,3.063-40.163,4.708l5.121,2.237C190.649,65.985,208.88,68.834,212.682,69.264Zm11.328,3.131V57.56c1.209-1.2,3.01.269,5.054.05a5.378,5.378,0,0,0,3.578-1.853c-.362.094-2.472.047-5.235-2.015s-4.892-1.366-4.892-1.366v19.63c-25.611-6.383-40.471,3.87-42.375,5.3L188.6,81c26.754-12.105,54.331-.426,58.582,1.223A98.993,98.993,0,0,0,224.01,72.394Z" transform="translate(-96.77 -40.325)" fill="#3f9c35"/>
</svg>
